<svg xmlns="http://www.w3.org/2000/svg" viewBox="0 0 256 256" width="32" height="32"><path d="M149.469 123.25c0-15.812 25.687-17.188 25.687-48.094 0-22.375-15.562-33.094-17.156-34.062h15.5L189 32h-50.219C87.688 32 79.5 67.75 79.5 79.594c0 17.656 13.812 39.594 41.594 39.594 2.531 0 5.218-.157 8.062-.47-.468 1.313-2.468 5.813-2.468 9.876 0 8.5 5.437 13.906 7.312 17.187-30.406-.28-67 12.907-67 42.25 0 10.72 9.219 35.97 52.531 35.97 49.407 0 64.375-30.5 64.375-47.595-.031-32.656-34.437-38.062-34.437-53.156zm-16.781-10.906c-17.282 0-31.875-21.75-31.875-45 0-6.906 3.312-26.969 22.437-26.969 24.625 0 30.625 36.5 30.625 46.438 0 2.312 1.625 25.53-21.187 25.53zM131.5 213.438c-15.844 0-43.188-6.75-43.188-30.75 0-8.313 4.844-30.032 46.907-30.032 2.156 0 4.031.094 5.625.25 8.75 6.532 26.875 15.969 26.875 33.344 0 7.875-4.688 27.188-36.219 27.188z" fill="#fff" font-family="none" font-weight="none" font-size="none" text-anchor="none"/></svg>