<svg xmlns="http://www.w3.org/2000/svg" viewBox="0 0 256 256" width="32" height="32"><path d="M60 40c-10.938 0-20 9.062-20 20v136c0 10.938 9.062 20 20 20h136c10.938 0 20-9.062 20-20V60c0-10.938-9.062-20-20-20zm0 16h136c2.281 0 4 1.719 4 4v136c0 2.281-1.719 4-4 4H60c-2.281 0-4-1.719-4-4V60c0-2.281 1.719-4 4-4zm23.5 13.75c-7.594 0-13.75 6.156-13.75 13.75s6.156 13.75 13.75 13.75 13.75-6.156 13.75-13.75-6.156-13.75-13.75-13.75zm72.25 36.5c-11.469 0-19.094 6.281-22.25 12.25h-.5V108h-22.5v76H134v-37.5c0-9.906 1.969-19.5 14.25-19.5 12.094 0 12.25 11.188 12.25 20v37H184v-41.75c0-20.438-4.344-36-28.25-36zM72 108v76h23.75v-76z" fill="#fff" font-family="none" font-weight="none" font-size="none" text-anchor="none"/></svg>