<svg xmlns="http://www.w3.org/2000/svg" viewBox="0 0 256 256" width="32" height="32"><path d="M224 68.469a78.502 78.502 0 01-22.625 6.187c8.125-4.875 14.375-12.594 17.313-21.781a79.363 79.363 0 01-25 9.562c-7.188-7.656-17.438-12.468-28.75-12.468-21.75 0-39.407 17.656-39.407 39.406 0 3.094.344 6.094 1.032 8.969-32.75-1.625-61.782-17.313-81.188-41.157C41.969 63 40.031 69.781 40.031 77c0 13.656 6.938 25.719 17.532 32.781-6.47-.219-12.532-1.969-17.844-4.937v.5c0 19.093 13.562 35.031 31.594 38.625a39.217 39.217 0 01-10.375 1.406c-2.532 0-5.032-.25-7.407-.719 5 15.656 19.563 27.032 36.782 27.375-13.47 10.563-30.47 16.844-48.907 16.844a77.98 77.98 0 01-9.406-.562C49.438 199.5 70.125 206.03 92.375 206.03c72.469 0 112.094-60.031 112.094-112.093 0-1.688-.063-3.407-.125-5.094A80.68 80.68 0 00224 68.469z" fill="#fff" font-family="none" font-weight="none" font-size="none" text-anchor="none"/></svg>